<svg width="30" height="30" viewBox="0 0 30 30" fill="none" xmlns="http://www.w3.org/2000/svg">
<path d="M23.8388 6.16117C22.0907 4.41301 19.8634 3.2225 17.4386 2.74018C15.0139 2.25787 12.5005 2.50541 10.2165 3.45151C7.93238 4.3976 5.98015 5.99976 4.60663 8.05537C3.23311 10.111 2.5 12.5277 2.5 15C2.5 17.4723 3.23311 19.889 4.60663 21.9446C5.98015 24.0002 7.93238 25.6024 10.2165 26.5485C12.5005 27.4946 15.0139 27.7421 17.4386 27.2598C19.8634 26.7775 22.0907 25.587 23.8388 23.8388" stroke="#48F08E" stroke-width="2"/>
<path d="M11.25 15L10.4691 15.6247L9.96938 15L10.4691 14.3753L11.25 15ZM26.25 14C26.8023 14 27.25 14.4477 27.25 15C27.25 15.5523 26.8023 16 26.25 16V14ZM15.4691 21.8747L10.4691 15.6247L12.0309 14.3753L17.0309 20.6253L15.4691 21.8747ZM10.4691 14.3753L15.4691 8.12531L17.0309 9.37469L12.0309 15.6247L10.4691 14.3753ZM11.25 14L26.25 14V16L11.25 16V14Z" fill="#48F08E"/>
</svg>
