<svg width="30" height="30" viewBox="0 0 30 30" fill="none" xmlns="http://www.w3.org/2000/svg">
<path d="M3.58169 16.9445C3.05298 15.9941 2.78862 15.5188 2.78862 15C2.78862 14.4812 3.05298 14.0059 3.58169 13.0555L5.53867 9.5375L7.60685 6.0837C8.1656 5.1506 8.44498 4.68406 8.89431 4.42464C9.34364 4.16521 9.88737 4.15654 10.9748 4.1392L15 4.075L19.0252 4.1392C20.1126 4.15654 20.6564 4.16521 21.1057 4.42463C21.555 4.68406 21.8344 5.1506 22.3931 6.0837L24.4613 9.5375L26.4183 13.0555C26.947 14.0059 27.2114 14.4812 27.2114 15C27.2114 15.5188 26.947 15.9941 26.4183 16.9445L24.4613 20.4625L22.3931 23.9163C21.8344 24.8494 21.555 25.3159 21.1057 25.5754C20.6564 25.8348 20.1126 25.8435 19.0252 25.8608L15 25.925L10.9748 25.8608C9.88737 25.8435 9.34364 25.8348 8.89431 25.5754C8.44498 25.3159 8.1656 24.8494 7.60685 23.9163L5.53867 20.4625L3.58169 16.9445Z" stroke="white" stroke-width="2"/>
<circle cx="15" cy="15" r="3.75" stroke="white" stroke-width="2"/>
</svg>
